<?xml version="1.0" standalone="no"?>
<!DOCTYPE svg PUBLIC "-//W3C//DTD SVG 20010904//EN"
 "http://www.w3.org/TR/2001/REC-SVG-20010904/DTD/svg10.dtd">
<svg version="1.0" xmlns="http://www.w3.org/2000/svg"
 width="300.000000pt" height="300.000000pt" viewBox="0 0 300.000000 300.000000"
 preserveAspectRatio="xMidYMid meet">
<metadata>
Created by potrace 1.10, written by Peter Selinger 2001-2011
</metadata>
<g transform="translate(0.000000,300.000000) scale(0.100000,-0.100000)"
fill="#000000" stroke="none">
<path d="M300 2971 c-19 -10 -48 -37 -65 -60 l-30 -43 -3 -1234 -2 -1234 -41
0 c-78 0 -149 -58 -149 -122 0 -20 5 -17 45 25 28 29 54 47 68 47 21 -1 21 -1
-4 -17 -42 -26 -59 -64 -59 -133 0 -69 19 -112 57 -129 17 -8 302 -11 938 -11
l914 0 36 31 c34 31 35 32 35 108 -1 80 -9 98 -60 134 -23 16 -23 17 -4 17 11
0 32 -13 47 -28 25 -26 27 -34 27 -124 0 -104 -4 -113 -75 -165 l-30 -22 28
-1 c44 0 85 27 107 70 28 55 28 185 0 240 -24 47 -81 80 -140 80 l-40 0 0 375
0 375 49 0 49 0 4 -193 c3 -184 4 -194 30 -249 34 -73 103 -142 176 -176 48
-23 71 -27 142 -27 76 0 93 4 152 33 77 38 130 92 167 171 l26 56 3 572 3 572
30 18 c57 33 69 74 69 233 l0 140 60 0 c79 0 116 19 129 67 6 20 9 38 8 40 -2
1 -18 -11 -36 -27 -18 -17 -43 -30 -56 -30 -23 0 -23 0 6 29 41 41 41 101 0
142 l-29 29 23 0 c14 0 41 -15 61 -32 36 -32 37 -32 30 -8 -21 74 -46 90 -141
90 -60 0 -65 2 -79 28 -8 15 -32 37 -54 50 -36 20 -54 22 -171 22 -156 0 -197
-14 -231 -80 -19 -37 -20 -58 -20 -321 0 -273 1 -282 22 -321 13 -22 35 -46
50 -54 l28 -15 0 -539 c0 -476 -2 -540 -16 -554 -17 -18 -42 -20 -64 -6 -12 8
-16 52 -20 258 l-5 249 -27 40 c-15 22 -44 51 -65 64 -34 22 -52 24 -170 27
l-133 4 -2 701 c-3 665 -4 704 -22 740 -25 50 -75 87 -128 95 -39 5 -42 4 -29
-11 7 -10 31 -27 53 -39 75 -42 78 -56 76 -304 l-2 -219 -6 215 c-6 238 -9
251 -73 291 -31 19 -52 19 -729 17 l-696 -3 -27 -25 c-48 -44 -50 -55 -55
-275 l-6 -210 -2 208 c-2 233 4 265 59 295 17 9 43 27 58 39 l26 22 -30 1
c-17 0 -46 -8 -65 -19z m1445 -83 c56 -25 55 -17 55 -653 l0 -585 -750 0 -750
0 0 588 c1 629 0 620 51 648 33 18 1354 20 1394 2z m674 -255 c-51 -31 -54
-44 -59 -268 l-6 -210 -2 223 -2 223 26 24 c15 14 36 25 48 25 19 -1 19 -2 -5
-17z m290 2 c16 -8 31 -21 35 -30 3 -8 21 -25 41 -36 l35 -21 -30 -25 c-25
-20 -30 -32 -30 -68 0 -46 30 -95 58 -95 11 0 4 -10 -21 -31 l-37 -30 0 -124
c0 -68 -5 -136 -10 -151 -6 -14 -28 -47 -50 -72 l-40 -45 0 -203 c0 -124 -4
-205 -10 -209 -7 -4 -10 65 -10 199 l0 204 -29 25 c-35 29 -31 37 18 37 36 0
74 19 98 50 9 11 12 88 13 283 0 293 -2 305 -59 340 -32 20 -10 22 28 2z m-25
-51 c24 -23 24 -545 0 -568 -12 -13 -40 -16 -134 -16 -94 0 -122 3 -134 16
-24 23 -24 545 0 568 12 13 40 16 134 16 94 0 122 -3 134 -16z m216 -134 l0
-50 -50 0 -50 0 0 50 0 50 50 0 50 0 0 -50z m-2640 -589 c0 -185 1 -200 21
-225 11 -14 28 -26 37 -26 11 0 4 -10 -21 -31 l-37 -30 0 -205 c0 -129 -4
-204 -10 -204 -7 0 -10 160 -10 460 0 300 3 460 10 460 6 0 10 -73 10 -199z
m1600 -105 c0 -282 1 -294 21 -320 11 -14 28 -26 37 -26 11 0 4 -10 -21 -31
-32 -26 -37 -36 -37 -73 0 -47 29 -96 58 -96 11 0 4 -10 -21 -31 l-37 -30 0
-372 c0 -367 0 -371 22 -394 12 -13 28 -23 35 -23 8 0 11 -4 8 -10 -3 -5 -37
-10 -75 -10 -38 0 -72 5 -75 10 -3 6 1 10 9 10 8 0 24 12 35 26 21 26 21 35
21 595 l0 568 -37 30 c-25 21 -32 31 -21 31 9 0 26 12 37 26 20 25 21 40 21
226 0 130 3 197 10 193 6 -4 10 -115 10 -299z m513 256 c14 -30 57 -52 100
-52 47 0 51 -8 16 -37 l-29 -25 0 -204 c0 -134 -3 -203 -10 -199 -6 4 -10 85
-10 210 l0 203 -45 49 c-34 36 -45 56 -44 78 0 16 3 23 6 15 2 -8 10 -26 16
-38z m225 -675 l-3 -564 -30 -49 c-101 -163 -329 -163 -430 0 l-30 49 -5 206
c-3 113 -9 214 -14 224 -14 29 -61 47 -126 47 l-60 0 0 50 0 50 110 0 c190 0
190 1 190 -305 0 -207 2 -229 20 -265 54 -105 213 -103 264 4 14 30 16 97 16
575 l0 541 50 0 51 0 -3 -563z m-798 -362 l0 -575 -750 0 -750 0 0 575 0 575
750 0 750 0 0 -575z m376 409 c67 -32 71 -51 77 -317 l4 -238 34 -35 c42 -43
73 -44 116 -2 l33 32 2 205 2 206 6 -200 c3 -110 3 -208 1 -217 -2 -10 -15
-29 -28 -43 -36 -35 -110 -36 -145 0 -32 32 -38 86 -38 330 0 173 -1 184 -23
216 -12 18 -40 44 -62 56 -46 26 -30 31 21 7z m-116 -404 c0 -154 3 -187 20
-232 24 -64 95 -138 160 -167 52 -24 31 -29 -23 -6 -49 20 -103 69 -132 119
-32 55 -45 143 -45 313 l0 141 -30 25 c-25 22 -27 26 -12 30 9 2 27 -7 40 -20
21 -23 22 -31 22 -203z m589 -157 c-10 -107 -45 -170 -117 -218 -48 -31 -112
-58 -112 -46 0 5 12 12 28 16 92 23 192 160 192 264 0 30 6 51 15 51 0 0 -2
-30 -6 -67z m-2389 -210 c0 -198 1 -208 22 -230 12 -13 28 -23 35 -23 8 0 11
-4 8 -10 -3 -5 -37 -10 -75 -10 -38 0 -72 5 -75 10 -3 6 1 10 9 10 8 0 24 12
35 26 20 25 21 39 21 230 0 129 4 204 10 204 6 0 10 -76 10 -207z m1724 -329
c22 -22 22 -146 0 -168 -14 -14 -112 -16 -934 -16 -822 0 -920 2 -934 16 -22
22 -22 146 0 168 14 14 112 16 934 16 822 0 920 -2 934 -16z"/>
<path d="M933 2736 c-181 -44 -334 -202 -372 -384 -35 -166 15 -330 138 -453
199 -199 504 -199 701 0 106 107 157 239 147 381 -5 76 -27 156 -53 198 -18
27 -55 29 -78 3 -17 -19 -16 -23 9 -98 39 -111 33 -202 -18 -306 -44 -90 -103
-147 -195 -190 -60 -29 -77 -32 -157 -32 -142 0 -243 49 -327 160 -48 64 -68
121 -75 215 -15 209 143 392 361 419 67 8 86 19 86 53 0 46 -62 59 -167 34z
m-36 -70 c-272 -112 -370 -426 -208 -665 44 -64 132 -137 192 -160 63 -24 77
-32 44 -26 -65 12 -156 68 -214 132 -80 86 -103 147 -109 286 -4 94 -1 116 18
170 48 131 141 225 269 272 62 23 69 16 8 -9z m594 -300 c6 -30 10 -94 7 -147
-3 -79 -9 -104 -35 -162 -18 -37 -55 -91 -83 -121 -50 -53 -145 -109 -205
-121 -16 -4 -4 5 28 18 127 54 230 166 269 290 22 72 24 188 3 247 -17 49 -19
64 -6 55 5 -3 15 -29 22 -59z"/>
<path d="M1024 2542 c-17 -11 -174 -278 -174 -296 0 -37 28 -46 146 -46 63 0
114 -2 114 -4 0 -2 -25 -45 -56 -95 -42 -69 -55 -97 -50 -115 7 -27 36 -41 64
-31 19 6 182 272 182 298 0 38 -27 47 -146 47 -63 0 -114 3 -114 6 0 3 13 24
28 47 45 67 82 134 82 150 0 31 -50 57 -76 39z m-18 -132 c-50 -86 -53 -104
-22 -133 14 -13 23 -27 19 -30 -13 -13 -93 -7 -99 7 -5 12 23 62 113 204 8 13
17 21 20 19 3 -3 -11 -33 -31 -67z m190 -163 c2 -7 -22 -58 -55 -112 -33 -54
-62 -103 -64 -109 -3 -6 -7 -8 -11 -5 -4 4 12 41 34 82 45 84 46 110 4 129
-18 8 -21 14 -12 20 21 13 98 9 104 -5z"/>
<path d="M1478 1429 c-101 -53 -101 -199 -2 -256 50 -29 96 -29 146 -1 72 41
96 123 58 198 -37 73 -127 99 -202 59z m146 -55 c21 -21 26 -36 26 -74 0 -42
-4 -52 -31 -74 -43 -36 -106 -36 -143 0 -21 21 -26 36 -26 74 0 38 5 53 26 74
21 21 36 26 74 26 38 0 53 -5 74 -26z"/>
<path d="M1497 1364 c-34 -34 -41 -59 -27 -94 31 -76 121 -78 159 -3 18 36 13
57 -22 91 -40 39 -75 41 -110 6z m87 -30 c31 -30 9 -84 -34 -84 -24 0 -50 26
-50 50 0 10 7 26 16 34 8 9 24 16 34 16 10 0 26 -7 34 -16z"/>
<path d="M1478 1029 c-43 -22 -78 -81 -78 -129 0 -50 35 -107 80 -130 21 -11
53 -20 70 -20 76 0 150 74 150 150 0 50 -35 107 -80 130 -49 25 -94 25 -142
-1z m144 -56 c38 -36 40 -108 5 -141 -47 -45 -110 -47 -151 -5 -37 37 -37 109
0 147 38 37 106 37 146 -1z"/>
<path d="M1497 964 c-34 -34 -41 -59 -27 -94 28 -67 92 -78 139 -25 39 45 39
73 0 113 -39 40 -76 42 -112 6z m87 -30 c31 -30 9 -84 -34 -84 -24 0 -50 26
-50 50 0 24 26 50 50 50 10 0 26 -7 34 -16z"/>
<path d="M10 127 c0 -63 54 -117 117 -117 l28 1 -30 22 c-38 28 -64 54 -92 92
l-22 30 -1 -28z"/>
</g>
</svg>
