<?xml version="1.0" standalone="no"?>
<!DOCTYPE svg PUBLIC "-//W3C//DTD SVG 20010904//EN"
 "http://www.w3.org/TR/2001/REC-SVG-20010904/DTD/svg10.dtd">
<svg version="1.0" xmlns="http://www.w3.org/2000/svg"
 width="300.000000pt" height="300.000000pt" viewBox="0 0 300.000000 300.000000"
 preserveAspectRatio="xMidYMid meet">
<metadata>
Created by potrace 1.10, written by Peter Selinger 2001-2011
</metadata>
<g transform="translate(0.000000,300.000000) scale(0.100000,-0.100000)"
fill="#000000" stroke="none">
<path d="M1502 2922 l-2 -82 -25 6 c-38 9 -218 -14 -321 -41 -489 -132 -874
-536 -974 -1024 -77 -381 9 -785 231 -1075 24 -32 50 -68 58 -80 26 -39 205
-197 281 -247 200 -134 449 -217 659 -222 l91 -2 2 -80 2 -80 3 73 c2 39 7 73
11 73 4 1 16 3 27 4 55 6 161 19 165 20 3 0 34 6 70 14 36 7 74 17 85 21 11 5
29 11 40 13 11 3 52 17 90 32 39 15 79 29 90 32 11 4 22 9 25 12 5 6 17 13 89
53 105 58 289 220 362 318 87 117 189 295 189 329 0 6 4 19 10 29 27 48 67
213 85 352 10 75 5 210 -11 315 -29 187 -29 187 -1 214 25 23 26 23 56 5 17
-10 31 -22 31 -26 0 -17 2 -23 10 -33 4 -5 11 -28 14 -50 12 -75 38 -200 44
-205 10 -10 -7 167 -23 237 -27 117 -93 158 -157 96 -33 -31 -35 -62 -13 -161
58 -259 19 -580 -101 -831 -106 -218 -269 -406 -469 -536 -196 -128 -401 -196
-639 -213 -436 -32 -847 152 -1128 504 -374 469 -374 1159 0 1628 291 365 731
552 1182 501 78 -8 245 -47 319 -73 l53 -19 2 -84 c2 -102 35 -185 99 -246 60
-57 274 -203 308 -210 18 -3 38 0 53 10 38 25 346 481 346 512 0 45 -16 62
-143 148 -187 129 -194 132 -312 132 -81 0 -109 -4 -147 -22 -70 -32 -134 -97
-169 -170 -28 -59 -32 -63 -47 -50 -26 23 -160 69 -247 83 -22 4 -45 8 -51 9
-6 2 -37 6 -70 9 -32 4 -73 9 -91 12 l-32 6 -4 72 -3 71 -2 -83z m930 29 c30
-10 70 -27 89 -36 44 -23 230 -153 247 -173 24 -30 9 -87 -38 -145 -62 -76
-159 -217 -185 -268 -25 -48 -89 -109 -116 -109 -12 0 -37 12 -56 26 -19 14
-69 49 -111 76 -107 71 -150 113 -183 183 -26 53 -29 71 -29 153 0 110 17 151
83 206 46 37 141 86 169 86 9 0 20 5 23 10 9 15 46 12 107 -9z"/>
<path d="M1270 2983 c-482 -79 -896 -381 -1109 -809 -89 -179 -139 -352 -146
-504 -5 -93 1 -80 28 67 20 103 32 150 64 243 167 488 609 873 1108 964 50 10
108 21 130 26 22 5 49 11 60 14 26 5 -102 5 -135 -1z"/>
<path d="M1645 2974 c33 -7 85 -18 115 -23 71 -13 161 -37 228 -61 56 -21 113
-27 96 -11 -17 18 -218 80 -308 96 -49 8 -112 15 -140 14 l-51 -1 60 -14z"/>
<path d="M2830 2650 c0 -5 10 -18 21 -28 79 -63 89 -75 89 -102 0 -30 -30 -60
-61 -60 -9 0 -36 13 -60 30 -24 16 -53 30 -64 30 -18 0 -18 -2 5 -20 14 -11
45 -32 69 -46 41 -25 47 -26 80 -14 45 16 57 32 59 80 2 33 -2 42 -37 71 -51
44 -101 73 -101 59z"/>
<path d="M2610 2321 c0 -6 25 -29 55 -52 60 -45 72 -81 37 -112 -27 -25 -61
-21 -112 13 -47 31 -94 43 -68 16 8 -7 28 -21 46 -30 18 -9 32 -21 32 -26 0
-12 64 -24 93 -17 12 4 31 20 41 37 34 58 4 113 -86 161 -21 11 -38 15 -38 10z"/>
<path d="M778 2048 c-49 -40 -48 -29 -48 -548 0 -434 2 -488 16 -510 34 -50
34 -50 282 -50 l234 0 30 30 c26 27 30 36 25 68 -4 22 -17 46 -32 60 -26 22
-32 22 -196 20 -225 -4 -225 -21 1 -28 154 -5 171 -7 184 -25 21 -27 20 -51
-4 -75 -19 -19 -33 -20 -245 -20 -212 0 -226 1 -245 20 -19 19 -20 33 -20 509
0 455 1 490 18 511 18 22 22 22 240 21 129 0 231 -5 242 -11 40 -22 36 -84 -7
-101 -13 -5 -93 -9 -176 -9 -205 -1 -197 6 -197 -174 0 -76 4 -137 10 -141 16
-10 21 36 18 163 l-3 122 177 0 c169 0 178 1 203 23 15 13 28 37 32 59 5 32 1
41 -25 68 l-30 30 -234 0 c-173 0 -238 -3 -250 -12z"/>
<path d="M1537 2040 c-46 -36 -44 -68 12 -208 27 -70 96 -246 151 -392 55
-146 117 -308 137 -360 41 -106 68 -140 112 -140 49 0 77 36 120 150 22 58 72
188 111 290 39 102 87 226 105 275 19 50 52 137 74 195 23 58 41 115 41 128 0
13 -13 37 -29 53 -50 50 -114 33 -144 -39 -9 -20 -42 -104 -73 -187 -31 -82
-80 -211 -109 -285 -29 -74 -61 -159 -71 -187 -21 -59 -29 -65 -38 -28 -6 23
-69 192 -213 565 -34 87 -65 154 -80 168 -30 27 -72 28 -106 2z m90 -39 c10
-11 69 -154 131 -318 155 -407 167 -432 205 -417 21 8 43 54 126 274 173 459
183 480 226 480 29 0 45 -19 45 -52 0 -26 -13 -63 -95 -273 -13 -33 -53 -139
-90 -235 -180 -474 -187 -489 -239 -476 -26 6 -40 36 -125 256 -32 85 -107
279 -165 432 -58 152 -106 285 -106 296 0 47 55 67 87 33z"/>
<path d="M916 1576 c5 -14 31 -16 175 -16 162 0 168 -1 183 -22 21 -30 20 -54
-4 -78 -18 -18 -33 -20 -184 -20 -139 0 -165 -2 -170 -16 -5 -14 14 -15 175
-12 l181 3 24 28 c13 16 24 41 24 57 0 16 -11 41 -24 57 l-24 28 -181 3 c-161
3 -180 2 -175 -12z"/>
<path d="M15 1330 c7 -149 60 -331 146 -505 134 -269 376 -515 642 -653 179
-92 370 -149 527 -157 101 -4 95 -2 -68 29 -327 62 -581 194 -802 416 -223
224 -356 480 -417 803 -27 147 -33 160 -28 67z"/>
<path d="M887 1403 c-10 -10 -8 -271 2 -277 16 -10 21 24 21 142 0 110 -7 151
-23 135z"/>
<path d="M2982 1409 c-1 -4 -9 -46 -17 -95 -8 -49 -19 -105 -24 -124 -6 -19
-17 -64 -26 -100 -8 -36 -19 -66 -25 -68 -5 -2 -10 -12 -10 -22 0 -9 -8 -35
-17 -56 -9 -22 -16 -42 -15 -46 1 -5 -2 -8 -8 -8 -5 0 -10 -7 -10 -15 0 -9
-16 -41 -35 -71 -19 -30 -35 -57 -35 -60 0 -10 -63 -98 -121 -169 -85 -105
-156 -173 -264 -255 -33 -25 -62 -47 -65 -50 -3 -4 -21 -14 -40 -24 -19 -9
-56 -30 -82 -46 -27 -16 -48 -27 -48 -23 0 3 -8 -1 -17 -9 -10 -9 -36 -21 -58
-28 -22 -7 -51 -18 -65 -25 -14 -7 -39 -15 -56 -18 -17 -3 -39 -10 -50 -16
-10 -6 -84 -24 -164 -40 -127 -26 -138 -29 -89 -30 48 -1 93 5 184 23 120 24
316 101 432 170 226 135 404 313 539 539 67 113 146 312 169 427 17 83 25 157
22 196 -2 27 -4 46 -5 43z"/>
</g>
</svg>
